<?xml version="1.0" standalone="no"?>
<!DOCTYPE svg PUBLIC "-//W3C//DTD SVG 20010904//EN"
 "http://www.w3.org/TR/2001/REC-SVG-20010904/DTD/svg10.dtd">
<svg version="1.0" xmlns="http://www.w3.org/2000/svg"
 width="250.000000pt" height="250.000000pt" viewBox="0 0 250.000000 250.000000"
 preserveAspectRatio="xMidYMid meet">

<g transform="translate(0.000000,250.000000) scale(0.100000,-0.100000)"
fill="#000000" stroke="none">
<path d="M0 1250 l0 -1250 1250 0 1250 0 0 1250 0 1250 -1250 0 -1250 0 0
-1250z m1010 568 c68 -22 173 -76 168 -87 -2 -3 -20 -36 -41 -72 l-37 -67 -63
33 c-34 18 -88 38 -120 45 -102 21 -223 -8 -261 -62 -25 -35 -21 -111 8 -145
28 -34 53 -43 218 -82 152 -36 183 -48 232 -91 64 -56 81 -101 80 -210 0 -74
-5 -105 -21 -140 -34 -75 -116 -136 -213 -161 -70 -17 -249 -18 -318 0 -57 14
-160 61 -204 93 l-27 19 46 70 c25 38 48 69 50 69 2 0 19 -11 36 -24 126 -95
368 -104 451 -17 32 34 42 101 20 142 -24 48 -63 64 -224 94 -212 40 -279 86
-316 214 -15 49 -15 102 -1 171 8 35 40 97 65 124 100 106 293 140 472 84z
m573 -205 c56 -114 107 -208 112 -210 6 -2 16 12 24 29 8 18 47 103 86 188 40
86 75 166 79 178 7 21 13 22 112 22 57 0 104 -3 104 -6 0 -3 -109 -220 -242
-482 -134 -262 -252 -495 -263 -517 l-20 -40 -79 -3 c-44 -2 -83 1 -88 6 -5 5
36 100 92 216 55 114 100 211 100 215 0 4 -67 141 -150 303 -82 162 -150 298
-150 302 0 3 41 6 90 6 l90 0 103 -207z"/>
</g>
</svg>
